{"title":"Mr. Romeo 1974 1CD Dvdrip X264 AAC [RRG DBB][DADA]","uid":8221220,"size":790085506,"categoryP":"video","categoryS":"movies","magnet":"?xt=urn:btih:2d29254023a12675e1f38fd70bd3ce91a9668b73&amp;dn=Mr.+Romeo+1974+1CD+Dvdrip+X264+AAC+%5BRRG+DBB%5D%5BDADA%5D&amp;tr=udp%3A%2F%2Ftracker.openbittorrent.com%3A80&amp;tr=udp%3A%2F%2Fopen.demonii.com%3A1337&amp;tr=udp%3A%2F%2Ftracker.coppersurfer.tk%3A6969&amp;tr=udp%3A%2F%2Fexodus.desync.com%3A6969","seeders":1,"leechers":1,"uploader":"brego45","files":1,"time":1362484747,"description":"\nCover -\n\n\n    &lt;a href=&quot;\thttp://desibbrg.org/images/31530019391747083356.jpg&quot; rel=&quot;nofollow&quot; target=&quot;_NEW&quot;&gt;\thttp://desibbrg.org/images/31530019391747083356.jpg&lt;/a&gt;\nScreens -\n\n &lt;a href=&quot;\nhttp://desibbrg.net/imghost/show.php?img=430023_Mr.Romeo.1974.1CD.Dvdrip.X264.AAC.RRG.DADA.DBBIANS.Comthumbs.jpg.html&quot; rel=&quot;nofollow&quot; target=&quot;_NEW&quot;&gt;\nhttp://desibbrg.net/imghost/show.php?img=430023_Mr.Romeo.1974.1CD.Dvdrip.X264.AAC.RRG.DADA.DBBIANS.Comthumbs.jpg.html&lt;/a&gt;\n\nInfo -\n\nGeneral\n\nFormat                                   : MP4 Video\nFile size                                : 753 MiB\nDuration                                 : 2h 18mn\nOverall bit rate                         : 762 Kbps\n\n\nVideo\nFormat                                   : AVC\nFormat/Info                              : Advanced Video Codec\nFormat profile                           : &lt;a class=&quot;__cf_email__&quot; href=&quot;/cdn-cgi/l/email-protection&quot; data-cfemail=&quot;c38ea2aaad838ff0edf3&quot;&gt;[email&amp;#160;protected]&lt;/a&gt;&lt;script cf-hash='f9e31' type=&quot;text/javascript&quot;&gt;\n/* &lt;![CDATA[ */!function(){try{var t=&quot;currentScript&quot;in document?document.currentScript:function(){for(var t=document.getElementsByTagName(&quot;script&quot;),e=t.length;e--;)if(t[e].getAttribute(&quot;cf-hash&quot;))return t[e]}();if(t&amp;&amp;t.previousSibling){var e,r,n,i,c=t.previousSibling,a=c.getAttribute(&quot;data-cfemail&quot;);if(a){for(e=&quot;&quot;,r=parseInt(a.substr(0,2),16),n=2;a.length-n;n+=2)i=parseInt(a.substr(n,2),16)^r,e+=String.fromCharCode(i);e=document.createTextNode(e),c.parentNode.replaceChild(e,c)}}}catch(u){}}();/* ]]&gt; */&lt;/script&gt;\nFormat settings, CABAC                   : Yes\nFormat settings, ReFrames                : 3 frames\nFormat settings, GOP                     : M=1, N=25\nCodec ID                                 : 7\nDuration                                 : 2h 18mn\nBit rate                                 : 625 Kbps\nWidth                                    : 640 pixels\nHeight                                   : 480 pixels\nDisplay aspect ratio                     : 4:3\nFrame rate mode                          : Constant\nFrame rate                               : 25.000 fps\nColor space                              : YUV\nChroma subsampling                       : 4:2:0\nBit depth                                : 8 bits\nScan type                                : Progressive\nBits/(Pixel*Frame)                       : 0.081\nStream size                              : 618 MiB (82%)\n\nAudio\nFormat                                   : AAC\nFormat/Info                              : Advanced Audio Codec\nFormat profile                           : LC\nCodec ID                                 : 10\nDuration                                 : 2h 18mn\nBit rate                                 : 129 Kbps\nChannel(s)                               : 2 channels\nChannel positions                        : Front: L R\nSampling rate                            : 44.1 KHz\nCompression mode                         : Lossy\nStream size                              : 127 MiB (17%)\n &lt;a href=&quot;\nhttp://www.imdb.com/title/tt0422775/&quot; rel=&quot;nofollow&quot; target=&quot;_NEW&quot;&gt;\nhttp://www.imdb.com/title/tt0422775/&lt;/a&gt;\n\nAbout this movie\n\n    Genres:\nIndian Cinema, Classics, Romance\n    Language:\nHindi\n    Running time:\n2:18:20\n    Released:\nJan 1, 1974\n\nCast &amp; Crew\n\n    Shashi Kapoor\n    Rinku Jaiswal\n    Kiran Kumar\n    Sarita\n    Utpal Dutt\n    Narendra Nath\n    Ranjeet\n    Rajan Haksar\n    Raj Kishore\n\nDirectors\n\n    Subhash Mukherjee\n\nProducers\n\n    Subodh Mukherji\n\n\n\nJoginder Pal kills a police constable, and Mr. Saxena becomes the only eye-witness to this murder. He comes forward to testify and as a result Joginder gets arrested and charged with murder. Joginder's father Mr. Pal is Saxena's best friend and pleads with Saxena to change his witness statement, but Saxena refuses to do so, and as a result Pal's son gets convicted and sentenced to death. Pal swears to avenge his son's death and destroy Saxena's family. Years later, Saxena's sons, Ramesh (Shashi Kapoor) and Suresh (Kiran Kumar), have grown up. While Suresh, the younger son, is serious, studious, and business-minded, Ramesh is the opposite. Pal's son, Prem (Narendra Nath), befriends Suresh and gets him addicted to the world of girls, drugs and alcohol. He falls in love with one of the girl's and wants to get married to her. Ramesh and his parents oppose this and Ramesh even threatens to kill the girl. Shortly afterwards, the girl gets killed, and a drug-induced Suresh immediately believes Ramesh to have commited the murder. In rage, Suresh abducts Ramesh's to-be bride, Sheetal Batra (Rinku Jaiswal). Now both brothers must fight each other until only one is left standing; much to the delight of Pal who orchestrated the entire treachery . Will the Saxena family survive the devious plan of Pal? \n\n","torrent":{"xt":"urn:btih:2d29254023a12675e1f38fd70bd3ce91a9668b73","amp;dn":"Mr.+Romeo+1974+1CD+Dvdrip+X264+AAC+%5BRRG+DBB%5D%5BDADA%5D","amp;tr":["udp%3A%2F%2Ftracker.openbittorrent.com%3A80","udp%3A%2F%2Fopen.demonii.com%3A1337","udp%3A%2F%2Ftracker.coppersurfer.tk%3A6969","udp%3A%2F%2Fexodus.desync.com%3A6969"],"infoHash":"2d29254023a12675e1f38fd70bd3ce91a9668b73","infoHashBuffer":{"type":"Buffer","data":[45,41,37,64,35,161,38,117,225,243,143,215,11,211,206,145,169,102,139,115]},"announce":[],"urlList":[]}}